<?xml version="1.0" encoding="UTF-8" standalone="no"?>
<!-- Created with Inkscape (http://www.inkscape.org/) -->

<svg
   xmlns:dc="http://purl.org/dc/elements/1.1/"
   xmlns:cc="http://creativecommons.org/ns#"
   xmlns:rdf="http://www.w3.org/1999/02/22-rdf-syntax-ns#"
   xmlns:svg="http://www.w3.org/2000/svg"
   xmlns="http://www.w3.org/2000/svg"
   xmlns:sodipodi="http://sodipodi.sourceforge.net/DTD/sodipodi-0.dtd"
   xmlns:inkscape="http://www.inkscape.org/namespaces/inkscape"
   width="210.89507mm"
   height="112.94338mm"
   viewBox="0 0 747.26598 400.19308"
   id="svg2"
   version="1.1"
   inkscape:version="0.91 r13725"
   sodipodi:docname="glasses.svg">
  <defs
     id="defs4" />
  <sodipodi:namedview
     id="base"
     pagecolor="#ffffff"
     bordercolor="#666666"
     borderopacity="1.0"
     inkscape:pageopacity="0.0"
     inkscape:pageshadow="2"
     inkscape:zoom="1.0946571"
     inkscape:cx="373.63299"
     inkscape:cy="200.09654"
     inkscape:document-units="px"
     inkscape:current-layer="layer1"
     showgrid="false"
     inkscape:window-width="1366"
     inkscape:window-height="715"
     inkscape:window-x="0"
     inkscape:window-y="0"
     inkscape:window-maximized="1"
     fit-margin-top="0"
     fit-margin-left="0"
     fit-margin-right="0"
     fit-margin-bottom="0" />
  <metadata
     id="metadata7">
    <rdf:RDF>
      <cc:Work
         rdf:about="">
        <dc:format>image/svg+xml</dc:format>
        <dc:type
           rdf:resource="http://purl.org/dc/dcmitype/StillImage" />
        <dc:title></dc:title>
      </cc:Work>
    </rdf:RDF>
  </metadata>
  <g
     inkscape:label="Calque 1"
     inkscape:groupmode="layer"
     id="layer1"
     transform="translate(2493.861,-26.808358)">
    <path
       style="fill:#000000;stroke:none"
       d="m -2107.1462,425.27848 c -44.3385,-11.29223 -69.0771,-20.60278 -87.5,-32.93126 -38.7802,-25.95135 -52.6079,-42.41452 -77.0225,-91.70252 -13.5689,-27.39265 -14.0235,-27.93972 -28.2092,-33.94406 -11.0319,-4.66941 -11.1631,-4.56524 -11.4902,9.11931 -0.6154,25.74374 -11.2845,47.14507 -23.9874,52.06013 -5.6318,2.17907 -9.8232,4.46473 -15.861,3.30766 -11.1271,-2.22544 -32.6431,-13.91254 -48.5568,-24.90476 -9.8285,-6.78894 -37.7209,-34.57718 -44.1064,-43.94176 -7.0116,-10.28265 -18.4463,-35.68957 -25.1515,-55.88408 -3.6512,-10.99676 -8.6434,-23.13444 -11.5446,-28.06886 -3.667,-6.23675 -5.253,-10.47614 -5.6118,-15 -0.2752,-3.46838 -1.5278,-8.27489 -2.7837,-10.68114 -2.3519,-4.50635 -4.6218,-15 -3.2446,-15 2.1694,0 9.5557,3.86103 11.9318,6.23709 3.4803,3.48032 2.5132,7.02 -1.3528,4.95102 -3.9179,-2.09683 -5.5455,0.11665 -3.7896,5.15372 0.7729,2.21717 1.4053,5.58878 1.4053,7.49247 0,1.90368 0.3383,4.34284 0.7518,5.42036 0.636,1.65739 1.0922,1.53872 2.9621,-0.77051 l 2.2104,-2.72966 0.9808,3.06026 c 0.5394,1.68314 1.1221,5.31025 1.2948,8.06025 0.4032,6.42046 9.3406,36.65123 15.146,51.23109 9.8168,24.65415 18.9128,39.32784 33.3193,53.75062 7.2004,7.20855 7.5187,7.37969 8.72,4.6875 0.6858,-1.53682 2.0046,-2.79421 2.9308,-2.79421 3.1939,0 1.6517,-2.35121 -8.1111,-12.36649 -8.851,-9.07996 -10.7712,-12.01013 -19.9239,-30.40345 -15.5898,-31.32921 -22.2532,-51.78406 -22.9188,-70.35506 -0.1479,-4.125 -0.8805,-7.91326 -1.628,-8.41836 -0.7476,-0.5051 0.3283,-0.97138 2.3908,-1.03618 2.0625,-0.0649 3.0404,-0.4037 2.1732,-0.75308 -0.8673,-0.34939 -2.1691,-1.85187 -2.8929,-3.33882 -0.9665,-1.98537 -0.3655,-1.69407 2.2623,1.09659 1.9681,2.09009 6.6042,5.10183 10.3024,6.69276 14.3482,6.17242 62.6575,30.44757 77.288,38.83675 19.3976,11.12267 27.6976,17.25012 33.2936,24.57897 11.6247,15.22438 14.968,29.16046 14.1863,59.1337 -0.5676,21.76217 -2.0609,28.57217 -6.8196,31.09935 -2.9916,1.58876 -15.1441,-0.25708 -24.1683,-3.6709 -20.9898,-7.94043 -26.1861,-10.78624 -40.5928,-22.231 -9.588,-7.61674 -11.9072,-8.59143 -11.9072,-5.00418 0,1.31418 -0.8438,2.3894 -1.875,2.3894 -8.4946,0 17.5445,19.72918 42.5,32.20119 20.2101,10.10044 22.3879,10.61346 32.2608,7.5999 15.9559,-4.8703 21.3121,-15.40318 25.325,-49.80109 0.3609,-3.09375 0.9048,-6.82279 1.2087,-8.28675 0.3137,-1.5117 -0.5608,-4.07709 -2.0243,-5.9375 -1.4171,-1.80166 -2.1857,-3.27575 -1.7079,-3.27575 0.4779,0 0.1686,-0.84375 -0.6873,-1.875 -0.8559,-1.03125 -1.2363,-1.875 -0.8454,-1.875 0.6302,0 -2.8493,-11.31351 -4.9977,-16.25 -0.4488,-1.03125 -0.8646,-2.25 -0.9239,-2.70834 -0.059,-0.45832 -0.5299,-1.2552 -1.0455,-1.77082 -1.4388,-1.43879 -1.1125,-9.27084 0.3863,-9.27084 0.728,0 0.9761,0.5625 0.5512,1.25 -0.4249,0.6875 -0.2995,1.25 0.2786,1.25 0.5781,0 1.1696,1.43154 1.3144,3.18121 0.3675,4.44032 6.0672,21.5482 8.3292,25.00045 1.0303,1.57242 5.0109,4.0329 8.8458,5.46773 20.109,7.52375 21.8549,9.36185 36.0011,37.90356 6.562,13.23963 15.9723,30.25955 20.9118,37.82205 16.4406,25.17096 41.6139,46.76075 72.4441,62.1315 20.9093,10.4246 68.4652,24.91256 82.5,25.13376 3.7812,0.0596 12.419,-0.52952 19.1951,-1.30915 15.8695,-1.82587 24.505,-5.7929 28.887,-13.27023 3.5484,-6.05482 8.3274,-23.14362 11.8801,-42.48034 2.8927,-15.74465 5.1624,-21.12076 10.5044,-24.88071 3.5466,-2.49632 11.4198,-8.65544 21.4084,-16.74763 3.5185,-2.85051 6.5464,-4.76826 12.5,-7.91709 1.375,-0.72722 4.1875,-2.40047 6.25,-3.71832 2.0625,-1.31785 5.7805,-3.5094 8.2624,-4.87011 19.3901,-10.63105 120.4876,-75.7555 120.4876,-77.61509 0,-0.61779 0.512,-1.592 1.1379,-2.16493 0.6611,-0.6052 0.7611,-0.38696 0.2387,0.52084 -0.4946,0.85938 -0.4441,1.54461 0.1121,1.52275 1.8212,-0.0716 6.0113,-3.7833 6.0113,-5.32491 0,-0.82888 0.9716,-1.50779 2.159,-1.50869 1.1875,-9.1e-4 5.2876,-2.44247 9.1113,-5.4257 4.9861,-3.88999 6.7585,-6.03484 6.2669,-7.58369 -0.4171,-1.31422 0.4711,-3.24615 2.2689,-4.93512 2.0712,-1.9458 2.776,-3.70878 2.3575,-5.89761 -0.3554,-1.8595 0.2249,-4.03009 1.435,-5.36727 1.1175,-1.23482 1.6087,-2.71155 1.0916,-3.28161 -0.5171,-0.57005 -0.1619,-0.58537 0.7894,-0.034 1.2182,0.70609 4.969,-2.28335 12.6874,-10.11209 13.3134,-13.50366 28.2405,-27.10916 38.247,-34.86072 5.9297,-4.59351 15.461,-14.33522 15.461,-15.80238 0,-2.86401 -9.6372,-0.2234 -15.5876,4.271 -0.7081,0.53485 -5.2699,3.90985 -10.1373,7.5 -4.8674,3.59015 -9.7716,7.37129 -10.8983,8.40254 -1.1266,1.03125 -3.613,3.09496 -5.5252,4.58604 -1.9121,1.49107 -7.6954,5.99606 -12.8516,10.01109 -9.1646,7.13618 -28.7708,20.47343 -32.5,22.10838 -1.0313,0.45212 -3.5625,1.92498 -5.625,3.27303 -2.0625,1.34805 -6,3.72222 -8.75,5.27594 -2.75,1.55372 -7.25,4.10066 -10,5.65988 -2.75,1.55922 -7.6719,4.03509 -10.9375,5.50194 -5.67,2.54683 -8.0318,6.0837 -4.0625,6.0837 1.0312,0 1.875,0.85598 1.875,1.90218 0,2.82255 -12.4723,14.77622 -17.5073,16.77922 -2.4022,0.95568 -5.0135,2.22706 -5.8027,2.82531 -0.7892,0.59824 -2.6925,1.3299 -4.2296,1.6259 -1.537,0.29602 -3.5951,1.68102 -4.5734,3.07779 -0.9783,1.39679 -2.6215,2.5396 -3.6515,2.5396 -1.03,0 -5.2058,2.26348 -9.2797,5.02996 -5.5072,3.73987 -8.1798,4.83595 -10.4205,4.27358 -2.0226,-0.50764 -4.5999,0.22957 -7.837,2.24176 -2.6528,1.64899 -9.7982,5.69046 -15.8786,8.98108 -6.0804,3.2906 -16.7079,9.32016 -23.6168,13.39901 l -12.5616,7.41607 -4.8029,-3.32838 c -4.508,-3.12407 -5.8592,-3.36194 -22.0081,-3.87463 -16.8543,-0.53507 -18.3911,-0.8354 -75.3303,-14.72181 -31.9688,-7.79658 -76.125,-18.51726 -98.125,-23.82374 -22,-5.30649 -40.8438,-10.08414 -41.875,-10.61701 -4.4484,-2.2986 -32.1022,-7.5717 -45.3869,-8.65449 -16.0519,-1.30832 -19.0465,-2.429 -29.6131,-11.08199 -7.3471,-6.01657 -22.1188,-13.37353 -58.125,-28.94893 -24.1072,-10.42817 -59.6423,-27.58858 -62.9717,-30.40995 -1.1156,-0.94534 -3.9971,-2.4538 -6.4033,-3.35214 -2.4063,-0.89834 -6.4878,-3.0386 -9.0701,-4.75613 -3.8193,-2.54027 -4.4185,-3.45607 -3.2123,-4.90943 0.8155,-0.98265 2.6055,-1.49304 3.9776,-1.13421 1.6849,0.4406 4.9431,-1.18787 10.0349,-5.01546 11.8156,-8.88192 14.0647,-9.79894 17.8885,-7.29349 2.817,1.84576 3.1067,2.71614 2.5495,7.65955 -0.4423,3.92418 -0.1993,5.41241 0.82,5.02127 0.7968,-0.30575 9.0286,-4.88399 18.2928,-10.17387 9.2643,-5.28988 32.5941,-17.38122 51.8441,-26.869654 33.2505,-16.38938 61.6237,-31.85164 65.5506,-35.72253 4.48,-4.41612 -1.3064,-2.75215 -19.5524,5.62256 -10.8382,4.97459 -21.5435,9.34293 -23.7895,9.70741 -3.7024,0.60082 -4.0837,0.36992 -4.0837,-2.4728 0,-4.02266 1.1712,-4.90477 12.5,-9.41446 13.1222,-5.22361 27.291,-11.34627 32.7476,-14.15105 6.0966,-3.13369 6.8513,-3.02762 9.0766,1.27574 l 1.8885,3.65184 19.1411,-9.86127 c 38.6806,-19.92769 52.1803,-18.67755 87.7712,8.128 20.112,15.14755 31.1896,24.75873 33.9792,29.48108 4.1512,7.02748 7.731,5.91081 10.904,-3.40136 l 1.9405,-5.695 -3.5775,-3.34188 c -5.7548,-5.37581 -42.4006,-29.42517 -52.6212,-34.53353 -5.1563,-2.57713 -12.1875,-5.73959 -15.625,-7.02769 -5.3217,-1.99414 -5.6002,-2.24496 -1.875,-1.68868 6.5011,0.9708 25.4694,10.49419 39.5047,19.83403 25.1823,16.75759 34.0777,23.30551 34.8146,25.62712 0.9801,3.08816 -3.8386,15.97355 -6.3313,16.9301 -2.7849,1.06866 -6.1054,-1.10094 -8.8787,-5.80121 -2.9897,-5.06717 -13.6718,-14.42825 -34.1106,-29.8922 -17.6663,-13.36627 -25.8846,-17.75751 -37.2862,-19.923 -13.0011,-2.46927 -22.2368,-0.12142 -45.2125,11.49366 -10.6563,5.38715 -22.2287,11.68228 -25.7166,13.98918 -15.1647,10.02988 -29.7078,18.01186 -64.9084,35.62489 -49.8996,24.967824 -92.035,48.401144 -91.4857,50.879084 0.4087,1.84335 34.0977,18.38756 63.395,31.13244 34.8869,15.17646 51.0421,23.39205 58.2281,29.61146 8.4181,7.28586 12.1067,8.52011 29.585,9.89956 16.2344,1.28128 17.6734,1.58704 81.5276,17.32402 165.8803,40.88145 158.2983,39.18665 177.6249,39.70461 l 17.6249,0.47236 26.7501,-14.80214 c 54.2103,-29.99725 80.5792,-44.40601 84.8602,-46.37013 2.4144,-1.10775 5.7961,-2.90453 7.5149,-3.99283 1.7187,-1.0883 11.8437,-6.89931 22.5,-12.91335 25.1593,-14.19914 43.6971,-26.41911 60.1209,-39.63124 19.4166,-15.6198 32.4709,-25.40804 37.0045,-27.7464 7.0081,-3.61467 17.6173,-2.02386 14.7496,2.21164 -6.6234,9.78222 -10.7873,14.70427 -23.8777,28.225 -8.3202,8.59375 -21.016,22.375 -28.2129,30.625 -14.4197,16.52968 -22.2566,23.99843 -35.4094,33.74628 -17.2888,12.81302 -123.1053,79.74593 -151.25,95.67126 -13.095,7.4096 -36.988,26.17186 -38.7703,30.44475 -0.8919,2.13824 -3.0811,11.48146 -4.865,20.76271 -7.6302,39.69878 -13.186,48.19661 -33.9266,51.89206 -5.466,0.9739 -10.2194,1.80285 -10.5631,1.84213 -13.2188,1.38946 -25.2388,-0.11685 -29.375,-1.16286 z m -228.4147,-112.36586 c 2.8302,-1.79639 4.1758,-9.24352 4.8929,-27.08048 1.6166,-40.21284 -7.395,-59.03621 -37.1032,-77.50046 -12.8624,-7.99424 -67.4642,-35.5994 -83.996,-42.46608 -11.5192,-4.78461 -12.765,-4.08718 -11.6916,6.54503 1.9543,19.35766 11.8253,48.94455 23.453,70.29651 2.8079,5.15625 5.8434,10.79475 6.7456,12.53001 2.5147,4.83694 24.9063,26.20753 36.1183,34.47133 12.6392,9.31577 24.5583,15.58415 38.8051,20.40809 10.9931,3.72223 19.6436,4.7842 22.7759,2.79605 z m 348.4147,-34.7386 c 8.7047,-5.25385 44.7737,-25.46378 49.375,-27.66545 1.7187,-0.82242 5.375,-2.88507 8.125,-4.58367 7.7055,-4.7595 12.1044,-6.96776 13.8799,-6.96776 0.8915,0 2.0707,-0.76164 2.6204,-1.69252 0.5498,-0.93088 2.3135,-2.3827 3.9192,-3.22628 1.6058,-0.84356 2.6364,-1.81687 2.2904,-2.16292 -0.528,-0.52802 -14.597,6.85041 -33.3349,17.48233 -2.4063,1.36532 -11.125,6.09717 -19.375,10.51523 -22.6131,12.10979 -36.875,20.51787 -36.875,21.73954 0,1.84475 1.5842,1.26368 9.375,-3.4385 z m 86.1764,-48.63163 c 1.9424,-1.46919 2.0353,-1.83525 0.4655,-1.83525 -1.0784,0 -2.6611,0.84375 -3.5169,1.875 -1.9798,2.3855 -0.1232,2.36131 3.0514,-0.0397 z m -527.9752,-90.01094 c 4.6957,-3.12163 8.8806,-6.75663 9.2999,-8.07778 1.0568,-3.32976 -1.4485,-7.49653 -4.5074,-7.49653 -3.3124,0 -11.7635,5.88286 -17.6903,12.31423 l -4.6965,5.09644 3.4465,1.86962 c 1.8956,1.02829 3.9335,1.89214 4.5285,1.91966 0.595,0.0275 4.9237,-2.50401 9.6193,-5.62564 z m 118.8697,-69.503324 c 5.264,-2.65155 10.4358,-4.82099 11.4928,-4.82099 1.057,0 3.5001,-1.41634 5.4291,-3.14742 l 3.5072,-3.14743 -3.75,0.82285 c -4.5082,0.98921 -10.1703,3.734 -14.2311,6.89874 -1.6396,1.2778 -4.2924,2.32326 -5.8951,2.32326 -4.0941,0 -11.7488,3.87058 -11.7488,5.94075 0,2.24861 2.925,1.31125 15.1959,-4.86976 z m 199.1791,351.427194 c -14.5377,-3.33067 -38.3713,-10.77809 -50.6153,-15.81604 -29.4479,-12.11674 -60.2262,-33.97214 -75.9696,-53.94541 -12.2747,-15.57255 -34.6749,-56.26754 -33.3206,-60.53437 0.5011,-1.57882 -0.1423,-3.26835 -1.8507,-4.85996 -1.4403,-1.34189 -2.6188,-3.18999 -2.6188,-4.1069 0,-3.21054 -11.4901,-12.21591 -22.054,-17.28482 -5.8629,-2.81322 -11.4155,-6.28735 -12.3392,-7.7203 -0.9236,-1.43297 -2.8206,-7.22815 -4.2154,-12.87822 -1.3949,-5.65005 -3.4181,-11.97817 -4.4959,-14.0625 -2.2721,-4.39383 -2.326,-4.36423 3.507,-1.92708 4.3702,1.82598 8.9744,1.41301 7.6756,-0.68847 -0.3617,-0.58516 -4.0054,-1.72258 -8.0972,-2.5276 -6.5505,-1.28872 -7.9944,-2.1407 -12.0816,-7.12857 l -4.642,-5.66493 -1.0495,3.1486 c -0.8017,2.40499 0.6049,8.13485 5.9555,24.261 3.8527,11.61182 8.1871,22.76489 9.6318,24.7846 2.606,3.64312 2.61,3.77689 0.5103,16.875 -2.3413,14.60475 -5.6484,27.57779 -7.0302,27.57779 -0.9553,0 -2.5074,-21.2127 -2.5523,-34.88195 -0.036,-11.014 -4.1152,-29.00631 -8.6702,-38.24305 -7.8615,-15.94167 -16.8946,-23.19685 -54.4277,-43.71481 -40.3768,-22.07249 -54.0697,-30.4783 -49.8719,-30.61524 1.9108,-0.0624 26.2332,11.5014 35.0861,16.68123 8.299,4.85571 31.0047,15.24778 36.12,16.53165 5.8169,1.45995 2.3589,-1.69032 -7.0647,-6.43595 -4.7682,-2.40123 -15.506,-7.17609 -23.8618,-10.6108 -8.3558,-3.43472 -15.9764,-6.89562 -16.9346,-7.6909 -3.5473,-2.94399 -23.4366,-11.00185 -25.5222,-10.33993 -2.3781,0.75479 -9.9236,-3.18752 -29.7338,-15.53504 -7.168,-4.46782 -12.3881,-8.33821 -11.6001,-8.60088 2.7582,-0.91939 43.4708,13.29264 52.7098,18.40002 9.4808,5.24105 42.7729,20.81744 57.5482,26.92513 14.5105,5.99821 46.7446,21.0282 51.875,24.18801 2.75,1.69375 7.4353,5.2121 10.4118,7.81856 6.414,5.61655 13.8946,8.29503 25.8382,9.25155 12.1621,0.97403 21.9392,3.07376 76.25,16.37554 26.125,6.39851 56.5,13.65636 67.5,16.12854 16.2682,3.65615 72.4064,17.90622 79.2414,20.11453 0.9577,0.30945 1.4688,0.8352 1.1357,1.16834 -0.6197,0.61966 -10.1372,-1.18012 -30.7634,-5.81747 -6.4,-1.43889 -11.9448,-2.30767 -12.3219,-1.9306 -0.6387,0.6387 3.3337,1.85858 18.9582,5.82185 26.431,6.70445 58.4224,16.09241 59.9375,17.58882 2.0639,2.03848 6.4463,1.28866 15.0625,-2.57715 4.5969,-2.0625 8.8681,-3.75 9.4915,-3.75 2.7287,0 0.7017,2.51546 -4.4686,5.54544 -3.0811,1.80565 -6.1784,4.36 -6.8828,5.67634 -0.7045,1.31635 -1.2367,9.69725 -1.1827,18.62425 0.055,9.12803 -0.475,17.3019 -1.2116,18.67826 -0.7204,1.34605 -4.1497,4.48764 -7.6207,6.98129 -3.471,2.49366 -7.3482,6.23958 -8.616,8.32427 -1.2677,2.08469 -4.0346,12.62268 -6.1486,23.41775 -4.4382,22.66378 -8.8689,36.73226 -12.9766,41.20313 -5.0406,5.48613 -12.487,7.88573 -28.2631,9.10763 -19.1922,1.4865 -21.5717,1.39308 -33.3708,-1.31018 z m 20.4726,-6.12757 c 2.8149,-1.78295 0.3415,-3.86936 -4.6089,-3.88767 -5.7423,-0.0213 -10.2387,-1.17569 -10.2387,-2.62873 0,-0.60731 1.6875,-1.10421 3.75,-1.10421 2.0625,0 3.75,0.42961 3.75,0.9547 0,0.52509 5.2031,1.03953 11.5625,1.1432 6.3593,0.10363 13.8844,0.32488 16.7224,0.49155 7.8074,0.45854 13.4769,-3.59667 16.564,-11.8476 5.3955,-14.42072 6.3027,-39.74594 2.0138,-56.21236 -5.3175,-20.41505 -13.1241,-33.08881 -25.9144,-42.07111 -7.975,-5.60059 -27.9294,-14.64402 -29.2962,-13.27717 -0.3133,0.3133 1.5774,1.2516 4.2016,2.08513 17.2638,5.4835 34.3677,17.98057 40.8108,29.81869 12.4915,22.95091 15.4888,60.08592 6.4487,79.89561 -4.3356,9.50064 -7.1215,10.41489 -27.3653,8.98026 -27.8675,-1.97489 -48.9415,-6.42821 -74.4979,-15.74276 -16.0833,-5.86185 -21.9302,-8.56916 -37.4556,-17.34314 -16.8558,-9.52581 -26.8277,-20.30785 -33.6908,-36.42786 -2.0073,-4.71468 -6.1485,-13.07214 -9.2027,-18.57214 -3.0542,-5.5 -7.7077,-15.625 -10.3412,-22.5 -2.6335,-6.875 -5.5496,-13.41604 -6.4802,-14.53564 -2.3569,-2.83545 -7.8295,-18.29098 -7.8295,-22.11193 0,-5.58937 3.2558,-7.72802 11.7562,-7.7224 19.7968,0.013 69.5714,11.31053 123.1845,27.95952 7.8737,2.44508 14.5347,4.22665 14.8023,3.95904 0.2677,-0.26761 -3.0807,-1.58071 -7.4407,-2.91799 -4.36,-1.33727 -16.1735,-5.01562 -26.2521,-8.1741 -31.8619,-9.98501 -79.5048,-20.87115 -99.5359,-22.74336 -10.9085,-1.01958 -15.4181,0.46811 -19.0033,6.26897 -3.3003,5.3401 -3.1724,9.11822 0.4214,12.44883 1.9944,1.84836 3.2037,4.76371 3.7809,9.11439 0.4667,3.51822 3.3071,11.9223 6.312,18.67572 5.9822,13.44474 19.4481,38.1575 23.0041,42.2175 1.2339,1.4088 2.8697,4.03909 3.6351,5.84509 0.7654,1.806 3.1977,5.34052 5.4049,7.85449 2.2073,2.51396 3.6002,4.97382 3.0953,5.46636 -0.5048,0.49252 -3.1094,-1.63574 -5.7879,-4.72949 -2.6785,-3.09375 -4.8716,-5.21969 -4.8734,-4.72429 0,1.26634 14.1711,19.91707 17.0201,22.3927 3.2505,2.82465 34.0678,18.86192 45.4765,23.66588 5.1562,2.1712 13.0312,4.41404 17.5,4.98407 19.274,2.45859 23.5858,3.97658 22.8109,8.03052 -0.4885,2.55533 0.109,3.16583 4.2478,4.34016 12.9795,3.68272 27.9488,4.95549 31.5389,2.68157 z m -25.3985,-6.52616 c -6.8184,-1.59797 -6.8607,-2.13612 -0.1596,-2.03481 3.171,0.048 6.3552,0.83607 7.1249,1.76351 1.6387,1.97449 0.4926,2.01913 -6.9653,0.2713 z m -93.3345,-37.27161 c -1.6443,-1.36931 -2.394,-2.50838 -1.666,-2.53125 1.938,-0.0609 6.3017,3.37472 5.414,4.26246 -0.4171,0.41715 -2.1038,-0.36189 -3.748,-1.73121 z m 150.0335,30.64465 c 4.9908,-4.51723 6.98,-14.57053 6.9435,-35.09249 -0.036,-20.27209 -2.2543,-31.64689 -8.607,-44.13665 -9.9619,-19.58567 -20.8962,-26.06039 -70.7346,-41.88541 -42.8642,-13.6105 -89.0756,-24.51826 -112.6073,-26.57984 -17.9964,-1.57665 -19.6481,3.62153 -6.1884,19.4769 10.8542,12.78629 15.0046,21.99475 19.4371,43.125 4.2213,20.12375 6.9136,26.22619 16.8596,38.21515 4.8049,5.79183 9.4422,10.75145 10.3051,11.02141 0.8629,0.26995 5.6025,2.92155 10.5324,5.89244 17.2545,10.39803 47.4503,22.05468 70.5543,27.23648 20.0748,4.5024 29.5576,5.5985 46.2888,5.35038 12.427,-0.18428 14.9457,-0.56806 17.2165,-2.62337 z m 32.4734,-79.95571 c 2.0076,-2.13704 2.6928,-4.17307 2.4054,-7.14779 -0.3535,-3.6582 -0.9635,-4.2915 -5.0609,-5.25419 -5.3395,-1.25455 -11.8215,0.92793 -12.9062,4.34554 -2.7893,8.7882 9.0944,14.94051 15.5617,8.05644 z m -12.4484,-0.83863 c -4.3336,-4.33362 -2.6882,-6.86032 4.1828,-6.42305 4.7729,0.30375 5.8941,-0.0133 5.8941,-1.66666 0,-3.03966 3.0589,-1.46346 3.5404,1.8243 0.5305,3.62201 -4.2713,8.84226 -8.1333,8.84226 -1.5989,0 -4.0667,-1.15959 -5.484,-2.57685 z m 8.2019,-1.90231 c 0,-1.78931 -1.0285,-2.495 -4.0625,-2.78754 -3.356,-0.32357 -4.0625,0.0417 -4.0625,2.10056 0,1.5934 1.0143,2.68438 2.8125,3.02494 4.203,0.79603 5.3125,0.30776 5.3125,-2.33796 z m -146.875,-66.57076 c 0,-1.61908 -13.6248,-5.46305 -40.5609,-11.4435 -9.5897,-2.12915 -25.3397,-5.75419 -35,-8.05565 -18.9895,-4.52404 -30.6891,-6.2326 -30.6891,-4.48168 0,0.6058 3.2344,1.74778 7.1875,2.53771 3.9531,0.78994 22.9375,5.31394 42.1875,10.05333 28.4605,7.00704 48.6419,11.45462 55.9375,12.32754 0.5156,0.0618 0.9375,-0.36029 0.9375,-0.93775 z m -188.165,66.86581 c -6.4626,-2.40318 -20.3707,-9.91505 -25.1982,-13.6097 -0.8185,-0.62644 -1.1996,-1.89101 -0.8469,-2.81018 0.4874,-1.27026 2.9437,-0.6127 10.2382,2.74085 11.4417,5.26017 24.0657,9.81477 30.5482,11.02143 5.256,0.97837 7.119,2.817 4.5213,4.46232 -2.9894,1.89349 -11.4489,1.10092 -19.2626,-1.80472 z m 370.0986,-4.47104 c -0.514,-0.83164 -1.1613,-6.38119 -1.4384,-12.33235 -0.2771,-5.95115 -0.8209,-11.81934 -1.2085,-13.04042 -0.5099,-1.6068 0.2473,-2.58204 2.741,-3.53013 1.895,-0.7205 7.9796,-4.02811 13.5214,-7.35025 5.5417,-3.32212 17.798,-10.33921 27.2362,-15.59352 14.9459,-8.32049 17.4774,-9.35525 19.6176,-8.01872 2.0067,1.25322 2.8711,1.17305 4.7146,-0.43721 1.2416,-1.08449 5.6325,-3.80349 9.7575,-6.04225 4.125,-2.23876 8.3461,-4.80419 9.3803,-5.70096 1.0341,-0.89678 6.2027,-3.68323 11.4858,-6.19213 5.7588,-2.73485 10.4602,-5.89723 11.7397,-7.89677 1.1738,-1.83433 4.0209,-4.92296 6.3267,-6.86364 2.3059,-1.94069 4.1925,-4.33131 4.1925,-5.3125 0,-0.9812 0.763,-1.784 1.6956,-1.784 0.9326,0 6.417,-2.74039 12.1875,-6.08975 25.5217,-14.81345 40.7202,-23.92125 43.6169,-26.13772 1.7187,-1.31515 4.5312,-3.10822 6.25,-3.98459 1.7187,-0.87638 4.666,-3.03054 6.5494,-4.78704 1.8835,-1.75651 3.7235,-2.89459 4.0891,-2.52906 0.9179,0.91794 -18.9139,17.2938 -29.8087,24.61415 -4.9252,3.30925 -15.7048,10.07866 -23.9548,15.04312 -19.0095,11.43903 -25.625,16.12082 -25.625,18.13478 0,2.64576 -3.4374,5.01297 -25.5148,17.57111 -17.0063,9.67363 -21.8016,11.87944 -24.5247,11.28134 -2.4558,-0.53939 -5.1603,0.30334 -9.8527,3.0701 -3.5573,2.09746 -6.9491,3.81356 -7.5372,3.81356 -0.5882,0 -3.995,1.96875 -7.5706,4.375 -3.5757,2.40625 -6.9695,4.375 -7.5418,4.375 -1.0494,0 -19.7161,10.86768 -24.3092,14.15274 -1.9779,1.41456 -2.1757,2.13277 -0.9831,3.56974 1.1301,1.36168 1.1671,3.90772 0.1522,10.47571 -1.5026,9.72349 -3.893,15.55997 -5.3845,13.14666 z m -29.1211,-25.54474 c -4.3637,-2.16117 -3.3192,-3.67338 1.8654,-2.70075 5.6549,1.06087 6.8373,1.71027 5.8937,3.23702 -0.9131,1.4773 -4.1444,1.25397 -7.7591,-0.53627 z m 3.4375,-5.2644 c 0,-0.39285 0.8148,-1.52912 1.8107,-2.52503 1.3156,-1.31562 3.2476,-1.581 7.0652,-0.97054 4.7838,0.76495 5.0481,0.99116 2.9504,2.52504 -2.2294,1.63017 -11.8263,2.41776 -11.8263,0.97053 z m -408.4806,-9.82171 c -9.7894,-10.46485 -14.2675,-17.07522 -21.6036,-31.89057 -12.7545,-25.75765 -23.721,-65.71025 -20.4071,-74.34619 1.2881,-3.35673 2.8425,-2.19741 3.6339,2.71026 3.9257,24.34316 9.4199,40.42429 23.2689,68.10578 4.1058,8.20681 7.3385,16.33548 7.3385,18.45302 0,3.21398 1.0208,4.43776 6.7689,8.11478 6.3477,4.06055 11.9811,10.11021 11.9811,12.86633 0,0.66907 -0.7712,1.85649 -1.7137,2.63874 -1.3601,1.12874 -3.2725,-0.24407 -9.2669,-6.65215 z m 388.2462,5.93211 c 0.9023,-0.36108 1.9805,-0.31668 2.3958,0.0986 0.4154,0.41536 -0.3229,0.7108 -1.6406,0.65652 -1.4562,-0.06 -1.7524,-0.35617 -0.7552,-0.7552 z m -10,-2.5 c 0.9023,-0.36108 1.9805,-0.31668 2.3958,0.0986 0.4154,0.41536 -0.3229,0.7108 -1.6406,0.65652 -1.4562,-0.06 -1.7524,-0.35617 -0.7552,-0.7552 z m 212.7344,-59.69733 c 0,-1.07183 0.5625,-1.94878 1.25,-1.94878 0.6875,0 1.25,0.5293 1.25,1.17623 0,0.64692 -0.5625,1.52387 -1.25,1.94877 -0.6875,0.4249 -1.25,-0.10437 -1.25,-1.17622 z m -0.4991,-9.24507 c -1.0603,-1.71553 2.3217,-5.56338 8.7912,-10.00226 3.8596,-2.64812 4.8966,-3.07306 2.8374,-1.16262 -1.7851,1.65601 -3.6297,4.5415 -4.0992,6.41217 -0.4695,1.87069 -1.4036,3.06134 -2.0758,2.6459 -0.6722,-0.41545 -1.5597,0.124 -1.9721,1.19888 -0.8181,2.13195 -2.4604,2.56022 -3.4815,0.90793 z m 83.7133,-25.918 c -1.5552,-1.55523 -1.9642,-4.92225 -1.9642,-16.16862 0,-16.5364 -0.1174,-31.82245 4.2917,-31.82245 2.3492,0 2.2914,-6.06635 3.297,-2.94643 1.5802,4.90291 4.6135,49.13979 3.2397,51.33929 -1.3638,2.18331 -6.5124,1.94994 -8.8642,-0.40179 z m 7.3473,-0.43308 c 1.0891,-1.76212 -2.5207,-23.2761 -3.9185,-24.67391 -2.3539,-2.35386 -2.799,-0.88659 -2.7131,10.33791 0.047,6.10961 0.6077,12.09275 1.2465,13.29587 1.2452,2.34503 4.2232,2.92023 5.3851,1.04013 z m -745.3913,-48.51131 c -0.2141,-3.50153 2.9621,-5.5406 14.2048,-9.11928 4.8125,-1.53187 16.0625,-6.05876 25,-10.05974 8.9375,-4.00099 24.6875,-10.9043 35,-15.340684 30.2514,-13.01401 48.4165,-21.48337 53.5195,-24.95314 2.6232,-1.78366 10.7795,-5.54641 18.125,-8.36167 7.3455,-2.81526 18.9805,-7.29885 25.8555,-9.96352 22.8609,-8.86065 79.9308,-27.043664 86.875,-28.0658 10.9311,-1.608993 6.228,-0.539306 -4.375,2.28445 -14.1894,3.778871 -69.2878,22.41278 -87.5,29.47889 -34.6954,13.46141 -33.6586,12.97363 -35.4167,16.66235 -1.4527,3.04787 -1.4112,3.82703 0.305,5.72343 2.5514,2.81921 2.5445,6.2378 -0.014,7.21977 -2.3386,0.8974 -4.2025,-1.54128 -4.2297,-5.53388 -0.024,-3.47386 0.01,-3.47453 -7.9117,0.1766 -3.5653,1.64401 -13.5137,6.20658 -22.1074,10.13906 -18.1828,8.320384 -19.758,9.333364 -16.954,10.902564 2.4453,1.36845 2.5718,7.96475 0.1704,8.88624 -2.5555,0.98062 -4.8632,-2.36571 -4.1618,-6.03478 0.4,-2.09253 0.038,-3.13218 -1.0897,-3.13218 -1.8007,0 -37.9169,16.71926 -42.667,19.7518 -1.6911,1.07963 -4.2688,1.51653 -6.4149,1.0873 -4.4108,-0.88215 -5.4428,-0.004 -3.7377,3.18231 1.8752,3.5039 0.9493,3.76317 -5.2621,1.47351 -7.1537,-2.63697 -15.6586,-0.78531 -16.5044,3.59326 l -0.5383,2.78682 -0.1703,-2.78368 z m 80.0798,-25.59132 c -1.1667,-1.16666 -1.5,-0.83333 -1.5,1.5 0,2.33334 0.3333,2.66667 1.5,1.5 1.1667,-1.16666 1.1667,-1.83333 0,-3 z m -48.6875,25.03138 c -2.2344,-1.38133 -4.0625,-2.98481 -4.0625,-3.5633 0,-0.57849 4.6406,-3.27096 10.3125,-5.98327 16.058,-7.67898 35.4924,-16.48481 36.3819,-16.48481 0.4431,0 0.8056,1.29375 0.8056,2.875 0,6.06804 6.5513,8.07485 8.9774,2.75 1.0564,-2.31841 1.0616,-3.92007 0.02,-6.20536 -0.7719,-1.6942 -1.0029,-3.32075 -0.5132,-3.61457 2.9041,-1.7424 40.4516,-18.305074 41.4976,-18.305074 0.6973,0 1.2678,1.0125 1.2678,2.25 0,5.20303 6.4105,7.12137 8.8107,2.63659 1.0383,-1.94013 1.0232,-3.51971 -0.058,-6.13132 -2.8349,-6.84394 -1.4358,-9.05116 8.1228,-12.81488 45.202,-17.79838 101.3886,-36.76503 120.6587,-40.7302 10.6058,-2.18233 8.7473,-2.860532 4.2528,-2.546308 -17.4426,1.21946 3.0804,-1.331031 10.0885,-1.039202 7.4177,0.308887 13.2067,0.724889 8.125,0.77261 -4.3605,0.04095 -4.2393,0.8375 2.3239,1.7716 17.6441,2.51117 34.4395,11.23751 72.4597,37.64766 5.7248,3.97662 10.715,8.02832 11.0893,9.00378 0.9703,2.52864 -2.4971,10.9743 -4.672,11.37959 -1.0043,0.18716 -2.9509,-1.37397 -4.3259,-3.46917 -2.9745,-4.5324 -16.1548,-15.85289 -34.7933,-29.88359 -16.6709,-12.54966 -24.2874,-16.90978 -33.9068,-19.41044 -16.5908,-4.3129 -29.2013,-1.70268 -53.9701,11.17118 l -17.8686,9.28742 -1.6601,-3.38516 c -1.9751,-4.02738 -6.5168,-4.24115 -11.8774,-0.55905 -1.883,1.29341 -6.2362,3.36868 -9.6737,4.6117 -3.4375,1.24302 -8.7813,3.52433 -11.875,5.06959 -3.0938,1.54526 -9.4401,4.35615 -14.103,6.24644 -4.6629,1.89029 -9.0421,4.49085 -9.7315,5.77902 -0.6894,1.28818 -2.218,2.33875 -3.397,2.3346 -4.6315,-0.0163 -15.3111,5.61126 -16.0572,8.46127 -0.7471,2.85387 1.2823,6.54627 3.5979,6.54627 2.2841,0 15.9408,-6.5716 15.9408,-7.6707 0,-0.59362 1.447,-1.0793 3.2155,-1.0793 1.7686,0 9.3964,-2.87221 16.9507,-6.3827 7.5543,-3.51048 14.0354,-6.08234 14.4025,-5.71523 1.2709,1.27089 -10.2465,7.53306 -48.883,26.57842 -21.3459,10.522144 -45.7242,23.099794 -54.174,27.950344 -8.4498,4.85054 -15.5591,8.81917 -15.7984,8.81917 -0.2393,0 -0.8052,-1.973 -1.2576,-4.38446 -0.504,-2.68648 -2.03,-5.17559 -3.9403,-6.42731 -3.6813,-2.41204 -5.6739,-1.74044 -17.4469,5.88043 -4.1561,2.6903 -9.371,5.25434 -11.5886,5.69785 -2.2175,0.44352 -4.3347,1.29624 -4.7047,1.89494 -1.0668,1.72613 -4.5622,1.09042 -8.9627,-1.63007 z m 114.6875,-48.510324 c 0,-2.92194 11.2082,-9.18832 14.3073,-7.99907 3.6005,1.38165 1.98,4.167 -4.2658,7.33195 -7.499,3.80007 -10.0415,3.96898 -10.0415,0.66712 z m 141.1161,-57.72391 c 0.8594,-0.34677 7.0459,0.405961 7.9464,0.625 12.3349,3.000478 7.5354,2.336919 -1.5625,0.63048 -1.6893,-0.31686 -7.2433,-0.90872 -6.3839,-1.25548 z"
       id="path4214"
       inkscape:connector-curvature="0"
       sodipodi:nodetypes="cssssscssssccsscsscsccssscssscccccsssssssssssssccssssccssssssssssssssssscscccssccsccscssscsccscsssssscscssssssscsssscsssccsccssssssssssssccsssscssssscscssssscssssscsscssscssssssscccsssssscsssscsscccsssscscccsssscscsssscssssssssccsscccscssccscsscsscssssccsssssssssccscssssscccscssssscsssssssscssssssssscssscssscscsssccsccsscssscsscsccsssssssscssssccssccsscscssssssssssscssscsscscsccsscsscsscsssccccssssssscscsccsscsssssssssssssscsccccccccccssssscscsscccssccccsccccssssssssssccccssssssscsscccsssscsssscccssccssssssssssssscssscsssssssscsssscsccccssssssss" />
  </g>
</svg>
